<?xml version="1.0" encoding="UTF-8" standalone="no"?>
<svg
   width="348.47995"
   height="304.91995"
   role="img"
   viewBox="0 0 13.939198 12.196798"
   version="1.1"
   id="svg2"
   xml:space="preserve"
   xmlns="http://www.w3.org/2000/svg"
   xmlns:svg="http://www.w3.org/2000/svg"><defs
     id="defs2" /><g
     id="g1"
     transform="matrix(0.87119987,0,0,0.87119987,0,-0.87119987)"
     style="fill:#ffffff"><path
       d="M 6,2.75 C 6,1.784 6.784,1 7.75,1 h 6.5 C 15.216,1 16,1.784 16,2.75 v 10.5 A 1.75,1.75 0 0 1 14.25,15 H 7.75 A 1.75,1.75 0 0 1 6,13.25 Z M 7.75,2.5 A 0.25,0.25 0 0 0 7.5,2.75 v 10.5 c 0,0.138 0.112,0.25 0.25,0.25 h 6.5 A 0.25,0.25 0 0 0 14.5,13.25 V 2.75 A 0.25,0.25 0 0 0 14.25,2.5 Z m -6,0 A 0.25,0.25 0 0 0 1.5,2.75 v 6.5 C 1.5,9.388 1.612,9.5 1.75,9.5 H 4 V 11 H 1.75 A 1.75,1.75 0 0 1 0,9.25 V 2.75 C 0,1.784 0.784,1 1.75,1 H 4 V 2.5 Z M 4,15 H 2 v -1.5 h 2 z"
       id="path1"
       style="fill:#ffffff" /><path
       d="m 13,10 a 2,2 0 1 1 -4,0 2,2 0 0 1 4,0 z M 12,5 a 1,1 0 1 1 -2,0 1,1 0 0 1 2,0 z"
       id="path2"
       style="fill:#ffffff" /></g></svg>
