<?xml version="1.0" encoding="UTF-8" standalone="no"?>
<svg
   width="348.98386"
   height="348.98389"
   role="img"
   viewBox="0 0 13.959354 13.959355"
   version="1.1"
   id="svg2"
   xml:space="preserve"
   xmlns="http://www.w3.org/2000/svg"
   xmlns:svg="http://www.w3.org/2000/svg"><defs
     id="defs2" /><path
     d="m 5.4596587,8.4996965 a 0.77551969,0.77551969 0 0 1 0,1.0960674 L 2.6471071,12.408316 h 1.0526388 a 0.77552014,0.77552014 0 0 1 0,1.55104 H 0 v -3.700782 a 0.77551969,0.77551969 0 0 1 1.5510393,0 v 1.052639 L 4.3635908,8.498661 a 0.77551969,0.77551969 0 0 1 1.0960679,0 z m 3.0400366,-3.040038 a 0.77551969,0.77551969 0 0 1 0,-1.0960666 L 11.312247,1.5510403 H 10.259608 A 0.77552017,0.77552017 0 1 1 10.259608,0 h 3.699746 v 3.7007793 a 0.77551969,0.77551969 0 0 1 -1.551038,0 V 2.6471068 L 9.5957642,5.4596585 a 0.77551969,0.77551969 0 0 1 -1.0960689,0 z"
     id="path1"
     style="fill:#ffffff;stroke-width:1.03403" /></svg>
