<?xml version="1.0" encoding="UTF-8" standalone="no"?>
<svg
   width="349.09436"
   height="305.45758"
   role="img"
   viewBox="0 0 13.963774 12.218303"
   version="1.1"
   id="svg2"
   xml:space="preserve"
   xmlns="http://www.w3.org/2000/svg"
   xmlns:svg="http://www.w3.org/2000/svg"><defs
     id="defs2" /><g
     id="g1"
     transform="matrix(0.87273596,0,0,0.87273596,0,-0.87273598)"
     style="fill:#ffffff"><path
       d="M 16,2.45 C 16,1.65 15.35,1 14.55,1 H 1.45 C 0.65,1 0,1.65 0,2.45 v 11.1 C 0,14.35 0.65,15 1.45,15 H 7.007 V 13.5 H 1.5 v -11 h 13 V 7 H 16 Z"
       id="path1"
       style="fill:#ffffff" /><path
       d="M 15.25,9.007 A 0.75,0.75 0 0 1 16,9.757 V 14.25 A 0.75,0.75 0 0 1 15.25,15 H 9.325 A 0.75,0.75 0 0 1 8.575,14.25 V 9.757 a 0.75,0.75 0 0 1 0.75,-0.75 z"
       id="path2"
       style="fill:#ffffff" /></g></svg>
