<?xml version="1.0" encoding="UTF-8" standalone="no"?>
<svg
   width="349.16367"
   height="399.04419"
   role="img"
   viewBox="0 0 13.966547 15.961768"
   version="1.1"
   id="svg2"
   xml:space="preserve"
   xmlns="http://www.w3.org/2000/svg"
   xmlns:svg="http://www.w3.org/2000/svg"><defs
     id="defs2" /><g
     id="g1"
     transform="matrix(0.99761052,0,0,0.99761052,-0.99960574,0)"
     style="fill:#ffffff"><path
       d="M 11.196,8 6,5 v 6 z"
       id="path1"
       style="fill:#ffffff" /><path
       d="M 15.002,1.75 A 1.75,1.75 0 0 0 13.252,0 h -10.5 a 1.75,1.75 0 0 0 -1.75,1.75 v 12.5 c 0,0.966 0.783,1.75 1.75,1.75 h 10.5 a 1.75,1.75 0 0 0 1.75,-1.75 z M 13.252,1.5 a 0.25,0.25 0 0 1 0.25,0.25 v 12.5 a 0.25,0.25 0 0 1 -0.25,0.25 H 2.752 A 0.25,0.25 0 0 1 2.502,14.25 V 1.75 A 0.25,0.25 0 0 1 2.752,1.5 Z"
       id="path2"
       style="fill:#ffffff" /></g></svg>
