<?xml version="1.0" encoding="UTF-8" standalone="no"?>
<svg
   width="349.32108"
   height="321.62054"
   role="img"
   viewBox="0 0 13.972843 12.864822"
   version="1.1"
   id="svg2"
   xml:space="preserve"
   xmlns="http://www.w3.org/2000/svg"
   xmlns:svg="http://www.w3.org/2000/svg"><defs
     id="defs2" /><g
     id="g1"
     transform="matrix(0.88723142,0,0,0.88723142,-0.2225033,-0.66588409)"
     style="fill:#ffffff"><path
       d="m 9.741,0.85 a 0.75,0.75 0 0 1 0.375,0.65 v 13 a 0.75,0.75 0 0 1 -1.125,0.65 l -6.925,-4 A 3.642,3.642 0 0 1 0.736,6.183 3.639,3.639 0 0 1 2.066,4.851 l 6.925,-4 a 0.75,0.75 0 0 1 0.75,0 z m -6.924,5.3 a 2.139,2.139 0 0 0 0,3.7 l 5.8,3.35 V 2.8 Z M 11.5,10.44 V 5.56 a 2.75,2.75 0 0 1 0,4.88 z"
       id="path1"
       style="fill:#ffffff" /><path
       d="m 11.5,13.614 a 5.752,5.752 0 0 0 0,-11.228 v 1.55 a 4.252,4.252 0 0 1 0,8.127 v 1.55 z"
       id="path2"
       style="fill:#ffffff" /></g></svg>
